<svg xmlns="http://www.w3.org/2000/svg" xmlns:xlink="http://www.w3.org/1999/xlink" viewBox="0 0 48 48" version="1.1">
<g id="surface1">
<path style=" fill:#FFCC80;" d="M 20.914063 19.984375 C 19.308594 19.984375 18 21.335938 18 22.984375 C 18 24.636719 19.3125 25.984375 20.914063 25.984375 L 41.089844 25.984375 C 42.691406 25.984375 44 24.636719 44 22.984375 C 44 21.335938 42.6875 19.984375 41.089844 19.984375 Z "></path>
<path style=" fill:#FFCC80;" d="M 18.914063 31.984375 C 17.308594 31.984375 16 33.335938 16 34.984375 C 16 36.632813 17.3125 37.984375 18.914063 37.984375 L 24.089844 37.984375 C 25.691406 37.984375 27 36.632813 27 34.984375 C 27 33.335938 25.6875 31.984375 24.089844 31.984375 Z "></path>
<path style=" fill:#FFCC80;" d="M 18.914063 25.984375 C 17.308594 25.984375 16 27.335938 16 28.984375 C 16 30.632813 17.3125 31.984375 18.914063 31.984375 L 25.089844 32 C 26.6875 32 28 30.648438 28 29 C 28 27.351563 26.6875 26 25.089844 26 Z "></path>
<path style=" fill:#FFCC80;" d="M 24 25.984375 L 25 26 L 25 19.984375 L 37.5625 16.019531 C 39.191406 15.710938 40.265625 14.140625 39.945313 12.511719 C 39.636719 10.882813 38.066406 9.816406 36.4375 10.128906 L 22.125 13.964844 L 18.496094 10.335938 C 17.882813 9.414063 16.847656 8.953125 15.816406 9.015625 C 14.933594 8.957031 13.980469 9.25 13 9.984375 L 9.152344 12.675781 C 6.386719 15.441406 4.28125 17.367188 4.046875 21.070313 C 4.019531 21.285156 4 21.511719 4 21.742188 L 4 28.621094 C 4 33.722656 8.054688 38 13.152344 38 C 13.152344 38 17.984375 38 24 38 Z "></path>
<path style=" fill:#FFEBEE;" d="M 19.101563 33 C 17.929688 33.011719 16.988281 33.914063 17 35.019531 C 17.011719 36.125 17.976563 37.011719 19.144531 37 C 20.316406 36.984375 20.269531 32.988281 19.101563 33 "></path>
<path style=" fill:#FFEBEE;" d="M 19.101563 27 C 17.929688 27.011719 16.988281 27.914063 17 29.019531 C 17.011719 30.125 17.976563 31.011719 19.144531 31 C 20.316406 30.984375 20.269531 26.988281 19.101563 27 "></path>
<path style=" fill:#F2A86B;" d="M 18.914063 37.984375 C 17.308594 37.984375 16 36.632813 16 34.984375 C 16 33.335938 17.3125 31.984375 18.914063 31.984375 C 17.902344 31.984375 17.011719 31.449219 16.488281 30.640625 C 14.945313 31.488281 14 33.105469 14 34.984375 C 14 36.117188 14.386719 37.148438 15.011719 37.988281 C 16.957031 37.992188 18.914063 37.984375 18.914063 37.984375 Z "></path>
<path style=" fill:#F2A86B;" d="M 18.914063 31.984375 C 17.308594 31.984375 16 30.632813 16 28.984375 C 16 27.335938 17.3125 25.984375 18.914063 25.984375 L 18.964844 24.804688 C 18.554688 24.652344 18.179688 24.417969 17.875 24.117188 C 15.511719 24.601563 14 26.589844 14 28.984375 C 14 30.117188 14.386719 31.148438 15.011719 31.988281 C 16.957031 31.992188 18.914063 31.984375 18.914063 31.984375 Z "></path>
<path style=" fill:#F2A86B;" d="M 22.257813 14 L 22.128906 13.964844 L 22.496094 14.335938 C 22.824219 14.828125 23 15.40625 23 16 L 23 22 C 23 23.65625 21.65625 25 20 25 C 18.34375 25 17 23.65625 17 22 L 17 17.90625 L 15 20 L 15 22 C 15 24.757813 17.242188 27 20 27 C 22.757813 27 24 24.757813 24 22 C 24 22 24 22.972656 24 19.984375 C 24 16 22.734375 14.785156 22.257813 14 Z "></path>
<path style=" fill:#F2A86B;" d="M 17 19.835938 L 17 17.90625 L 16.386719 17.164063 C 16.386719 17.164063 12.011719 24.453125 5 24.964844 L 4 24.976563 L 4 27 C 11.152344 27 15.304688 22.3125 17 19.835938 Z "></path>
</g>
</svg>